<svg width="20" height="20" viewBox="0 0 20 20" fill="none" xmlns="http://www.w3.org/2000/svg">
<path fill-rule="evenodd" clip-rule="evenodd" d="M7.85749 7.474H10.9525V9.01567C11.3983 8.129 12.5417 7.33234 14.2592 7.33234C17.5517 7.33234 18.3333 9.09734 18.3333 12.3357V18.3332H15V13.0732C15 11.229 14.5542 10.189 13.4192 10.189C11.845 10.189 11.1908 11.3098 11.1908 13.0723V18.3332H7.85749V7.474ZM2.14166 18.1915H5.47499V7.33234H2.14166V18.1915ZM5.95249 3.7915C5.95261 4.0709 5.8972 4.34753 5.78948 4.60533C5.68176 4.86312 5.52387 5.09693 5.32499 5.29317C4.92199 5.69369 4.3765 5.91788 3.80832 5.9165C3.24115 5.91612 2.69692 5.6925 2.29332 5.294C2.09517 5.0971 1.93781 4.86302 1.83028 4.6052C1.72274 4.34737 1.66714 4.07086 1.66666 3.7915C1.66666 3.22734 1.89166 2.68734 2.29416 2.289C2.69739 1.88997 3.24186 1.66625 3.80916 1.6665C4.37749 1.6665 4.92249 1.89067 5.32499 2.289C5.72666 2.68734 5.95249 3.22734 5.95249 3.7915Z" fill="#EFEFED"/>
</svg>
