<svg width="968" height="1128" viewBox="0 0 968 1128" fill="none" xmlns="http://www.w3.org/2000/svg">
<path fill-rule="evenodd" clip-rule="evenodd" d="M144.861 83.4948C229.48 67.3753 295.108 198.373 379.993 183.716C473.609 167.551 509.243 -28.1971 598.174 5.22136C689.912 39.6951 586.431 225.29 660.72 289.208C737.308 355.104 914.227 225.533 959.317 315.948C1003.23 403.999 850.647 476.137 794.099 556.659C763.95 599.59 711.609 630.629 702.097 682.219C688.642 755.197 783.579 848.483 730.697 900.543C679.22 951.219 582.105 824.763 519.937 861.547C432.675 913.179 454.798 1075.33 362.897 1118.16C292.004 1151.21 209.157 1081.87 145.891 1035.88C84.7177 991.414 14.4712 934.806 7.11037 859.538C-1.22371 774.317 86.0806 708.728 105.747 625.39C116.317 580.6 106.879 533.622 94.4806 489.304C71.6751 407.787 -8.11805 339.663 2.31053 255.662C11.5913 180.905 70.861 97.5913 144.861 83.4948Z" stroke="url(#paint0_linear_954_166)"/>
<defs>
<linearGradient id="paint0_linear_954_166" x1="169.653" y1="60.6331" x2="677.934" y2="935.616" gradientUnits="userSpaceOnUse">
<stop stop-color="#D0B89D"/>
<stop offset="1" stop-color="#A58158" stop-opacity="0"/>
</linearGradient>
</defs>
</svg>
