<svg width="1050" height="1065" viewBox="0 0 1050 1065" fill="none" xmlns="http://www.w3.org/2000/svg">
<path opacity="0.4" fill-rule="evenodd" clip-rule="evenodd" d="M753.052 1064.35C666.891 1062.45 629.674 920.085 543.555 916.688C448.577 912.941 373.308 1097.66 293.147 1046.21C210.456 993.142 350.047 832.611 290.512 754.29C229.134 673.546 29.2127 763.685 3.72747 665.468C-21.0917 569.818 143.157 530.968 215.125 463.762C253.496 427.93 311.138 408.424 331.093 359.766C359.321 290.938 285.633 179.456 348.141 139.426C408.987 100.46 477.965 244.962 546.411 221.876C642.486 189.47 654.284 25.6351 753.085 2.83986C829.301 -14.7446 896.095 70.6881 948.539 129.097C999.248 185.573 1056.33 255.87 1048.01 331.31C1038.59 416.725 939.59 462.825 903.144 540.525C883.556 582.284 883.102 630.384 886.096 676.493C891.602 761.304 955.658 844.907 928.118 925.194C903.609 996.644 828.399 1066.02 753.052 1064.35Z" stroke="url(#paint0_linear_954_167)"/>
<defs>
<linearGradient id="paint0_linear_954_167" x1="806.151" y1="1030.45" x2="1015.65" y2="205.135" gradientUnits="userSpaceOnUse">
<stop stop-color="#F6EBA2"/>
<stop offset="1" stop-color="#E6E2C7" stop-opacity="0"/>
</linearGradient>
</defs>
</svg>
