<svg width="20" height="20" viewBox="0 0 20 20" fill="none" xmlns="http://www.w3.org/2000/svg">
<path d="M16.1008 4.635C15.9743 4.56954 15.8511 4.49778 15.7317 4.42C15.3847 4.1906 15.0666 3.92033 14.7842 3.615C14.0767 2.80583 13.8125 1.985 13.7158 1.41083H13.7192C13.6383 0.933333 13.6717 0.625 13.6775 0.625H10.4567V13.0775C10.4567 13.2442 10.4567 13.41 10.45 13.5733C10.45 13.5933 10.4475 13.6117 10.4467 13.6342C10.4467 13.6425 10.4467 13.6525 10.4442 13.6617V13.6692C10.4103 14.1159 10.2672 14.5474 10.0275 14.9258C9.78772 15.3042 9.45862 15.6178 9.06916 15.8392C8.66285 16.0703 8.20329 16.1915 7.73583 16.1908C6.23583 16.1908 5.01916 14.9675 5.01916 13.4567C5.01916 11.945 6.23583 10.7217 7.73583 10.7217C8.02 10.7217 8.30249 10.7667 8.57249 10.855L8.57666 7.575C7.75667 7.46921 6.92366 7.53455 6.13019 7.76691C5.33673 7.99927 4.60005 8.3936 3.96666 8.925C3.41154 9.40712 2.94482 9.98241 2.5875 10.625C2.45166 10.8592 1.93833 11.8017 1.87666 13.33C1.8375 14.1967 2.09833 15.0967 2.2225 15.4675V15.4758C2.3 15.6942 2.60333 16.4408 3.09666 17.07C3.49449 17.575 3.96454 18.0187 4.49166 18.3867V18.3783L4.49916 18.3867C6.0575 19.445 7.78666 19.3758 7.78666 19.3758C8.08583 19.3633 9.08833 19.3758 10.2267 18.8367C11.4892 18.2383 12.2075 17.3475 12.2075 17.3475C12.6668 16.8151 13.032 16.2084 13.2875 15.5533C13.5792 14.7867 13.6758 13.8683 13.6758 13.5017V6.89417C13.715 6.9175 14.2358 7.26167 14.2358 7.26167C14.2358 7.26167 14.9858 7.7425 16.155 8.055C16.9933 8.2775 18.1242 8.325 18.1242 8.325V5.1275C17.7283 5.17083 16.9242 5.04583 16.1 4.63583L16.1008 4.635Z" fill="#EFEFED"/>
</svg>
