<svg width="24" height="25" viewBox="0 0 24 25" fill="none" xmlns="http://www.w3.org/2000/svg">
<path d="M9.86009 18.5009C9.72297 18.5004 9.58741 18.4718 9.46183 18.4168C9.33624 18.3617 9.22333 18.2814 9.13009 18.1809L4.27009 13.0109C4.08841 12.8173 3.99109 12.5594 3.99953 12.2941C4.00797 12.0287 4.12148 11.7776 4.31509 11.5959C4.50869 11.4142 4.76654 11.3169 5.03191 11.3253C5.29727 11.3338 5.54841 11.4473 5.73009 11.6409L9.85009 16.0309L18.2601 6.83089C18.3454 6.72461 18.4516 6.6369 18.5721 6.57315C18.6926 6.5094 18.8248 6.47095 18.9607 6.46017C19.0966 6.44938 19.2332 6.46649 19.3622 6.51044C19.4912 6.55439 19.6099 6.62425 19.711 6.71573C19.812 6.80722 19.8933 6.91839 19.9498 7.04243C20.0063 7.16647 20.0369 7.30075 20.0396 7.43703C20.0423 7.5733 20.0172 7.7087 19.9657 7.8349C19.9141 7.9611 19.8374 8.07543 19.7401 8.17089L10.6001 18.1709C10.5077 18.2732 10.3952 18.3554 10.2696 18.4122C10.144 18.469 10.0079 18.4992 9.87009 18.5009H9.86009Z" fill="#AB70F5"/>
</svg>
