<svg width="79" height="80" viewBox="0 0 79 80" fill="none" xmlns="http://www.w3.org/2000/svg">
<path fill-rule="evenodd" clip-rule="evenodd" d="M45.12 72.2351C44.5272 72.5321 43.8408 72.5815 43.2116 72.3724C42.5824 72.1633 42.062 71.7128 41.765 71.1201L26.765 41.1201C26.5908 40.7724 26.5001 40.3889 26.5001 40.0001C26.5001 39.6112 26.5908 39.2277 26.765 38.8801L41.765 8.88009C41.9105 8.58399 42.1132 8.31962 42.3614 8.10222C42.6096 7.88483 42.8984 7.7187 43.211 7.61344C43.5237 7.50817 43.8542 7.46584 44.1833 7.48889C44.5124 7.51193 44.8337 7.5999 45.1287 7.74772C45.4237 7.89553 45.6865 8.10027 45.9019 8.35013C46.1174 8.59999 46.2813 8.89003 46.3841 9.20353C46.487 9.51702 46.5267 9.84778 46.5011 10.1767C46.4755 10.5057 46.3851 10.8263 46.235 11.1201L31.8 40.0001L46.235 68.8801C46.532 69.4729 46.5814 70.1593 46.3723 70.7885C46.1632 71.4177 45.7127 71.938 45.12 72.2351Z" fill="#C0A3E5"/>
</svg>
