<svg width="80" height="80" viewBox="0 0 80 80" fill="none" xmlns="http://www.w3.org/2000/svg">
<path fill-rule="evenodd" clip-rule="evenodd" d="M33.88 7.7649C34.4728 7.46788 35.1592 7.41849 35.7884 7.62759C36.4176 7.83669 36.938 8.28716 37.235 8.8799L52.235 38.8799C52.4092 39.2276 52.4999 39.611 52.4999 39.9999C52.4999 40.3888 52.4092 40.7723 52.235 41.1199L37.235 71.1199C37.0895 71.416 36.8868 71.6804 36.6386 71.8978C36.3904 72.1152 36.1017 72.2813 35.789 72.3866C35.4763 72.4918 35.1458 72.5342 34.8167 72.5111C34.4876 72.4881 34.1663 72.4001 33.8713 72.2523C33.5763 72.1045 33.3135 71.8997 33.0981 71.6499C32.8826 71.4 32.7187 71.11 32.6159 70.7965C32.513 70.483 32.4733 70.1522 32.4989 69.8233C32.5245 69.4943 32.6149 69.1737 32.765 68.8799L47.2 39.9999L32.765 11.1199C32.468 10.5271 32.4186 9.84067 32.6277 9.21149C32.8368 8.58231 33.2873 8.06196 33.88 7.7649Z" fill="#C0A3E5"/>
</svg>
